<?xml version="1.0" encoding="UTF-8"?>
<svg xmlns="http://www.w3.org/2000/svg" width="1080" height="773" viewBox="0 0 1080 773" role="img" aria-labelledby="title desc">
  <title id="title">Post-merge one-document write p50</title>
  <desc id="desc">Seven Azure regions and two replicates. Lower is better. Failed operations are reported separately.</desc>
  <style>
    text { font-family: Inter, Arial, sans-serif; fill: #1e293b; }
    .title { font-size: 24px; font-weight: 700; }
    .description { font-size: 13px; fill: #475569; }
    .legend, .category, .value, .axis { font-size: 11px; }
    .category { font-weight: 600; }
  </style>
  <rect width="100%" height="100%" fill="#ffffff"/>
  <text x="24" y="30" class="title">Post-merge one-document write p50</text>
  <text x="24" y="48" class="description">Seven Azure regions and two replicates. Lower is better. Failed operations are reported separately.</text>
  <rect x="190" y="76" width="16" height="16" rx="3" fill="#93c5fd"/><text x="212" y="89" class="legend">Snapshot, 0 indexes</text><rect x="330" y="76" width="16" height="16" rx="3" fill="#3b82f6"/><text x="352" y="89" class="legend">Snapshot, 1 index</text><rect x="470" y="76" width="16" height="16" rx="3" fill="#1d4ed8"/><text x="492" y="89" class="legend">Snapshot, 2 indexes</text><rect x="610" y="76" width="16" height="16" rx="3" fill="#67e8f9"/><text x="632" y="89" class="legend">Trie, 0 indexes</text><rect x="750" y="76" width="16" height="16" rx="3" fill="#06b6d4"/><text x="772" y="89" class="legend">Trie, 1 index</text><rect x="890" y="76" width="16" height="16" rx="3" fill="#0e7490"/><text x="912" y="89" class="legend">Trie, 2 indexes</text>
  <line x1="190" y1="105" x2="190" y2="718" stroke="#dbe4ef" stroke-width="1"/>
  <text x="190" y="745" text-anchor="middle" class="axis">0</text>
  <line x1="344" y1="105" x2="344" y2="718" stroke="#dbe4ef" stroke-width="1"/>
  <text x="344" y="745" text-anchor="middle" class="axis">2,000</text>
  <line x1="498" y1="105" x2="498" y2="718" stroke="#dbe4ef" stroke-width="1"/>
  <text x="498" y="745" text-anchor="middle" class="axis">4,000</text>
  <line x1="652" y1="105" x2="652" y2="718" stroke="#dbe4ef" stroke-width="1"/>
  <text x="652" y="745" text-anchor="middle" class="axis">6,000</text>
  <line x1="806" y1="105" x2="806" y2="718" stroke="#dbe4ef" stroke-width="1"/>
  <text x="806" y="745" text-anchor="middle" class="axis">8,000</text>
  <line x1="960" y1="105" x2="960" y2="718" stroke="#dbe4ef" stroke-width="1"/>
  <text x="960" y="745" text-anchor="middle" class="axis">10,000</text>
  <text x="174" y="141" text-anchor="end" class="category">128 documents</text>
  <rect x="190" y="125" width="229.33048600000004" height="18" rx="4" fill="#93c5fd"/>
  <text x="427.33048600000006" y="139" class="value">2,978 ms</text>
  <rect x="190" y="151" width="246.70815399999998" height="18" rx="4" fill="#3b82f6"/>
  <text x="444.708154" y="165" class="value">3,204 ms</text>
  <rect x="190" y="177" width="294.38794" height="18" rx="4" fill="#1d4ed8"/>
  <text x="492.38794" y="191" class="value">3,823 ms</text>
  <rect x="190" y="203" width="413.35602" height="18" rx="4" fill="#67e8f9"/>
  <text x="611.35602" y="217" class="value">5,368 ms</text>
  <rect x="190" y="229" width="475.47415299999994" height="18" rx="4" fill="#06b6d4"/>
  <text x="673.4741529999999" y="243" class="value">6,175 ms</text>
  <rect x="190" y="255" width="513.0452250000001" height="18" rx="4" fill="#0e7490"/>
  <text x="711.0452250000001" y="269" class="value">6,663 ms</text>
  <text x="174" y="327" text-anchor="end" class="category">5,000 documents</text>
  <rect x="190" y="311" width="230.15715799999998" height="18" rx="4" fill="#93c5fd"/>
  <text x="428.157158" y="325" class="value">2,989 ms</text>
  <rect x="190" y="337" width="256.125716" height="18" rx="4" fill="#3b82f6"/>
  <text x="454.125716" y="351" class="value">3,326 ms</text>
  <rect x="190" y="363" width="321.90827900000005" height="18" rx="4" fill="#1d4ed8"/>
  <text x="519.908279" y="377" class="value">4,181 ms</text>
  <rect x="190" y="389" width="416.545052" height="18" rx="4" fill="#67e8f9"/>
  <text x="614.5450519999999" y="403" class="value">5,410 ms</text>
  <rect x="190" y="415" width="479.811717" height="18" rx="4" fill="#06b6d4"/>
  <text x="677.811717" y="429" class="value">6,231 ms</text>
  <rect x="190" y="441" width="532.6428030000001" height="18" rx="4" fill="#0e7490"/>
  <text x="730.6428030000001" y="455" class="value">6,917 ms</text>
  <text x="174" y="513" text-anchor="end" class="category">25,000 documents</text>
  <rect x="190" y="497" width="261.597105" height="18" rx="4" fill="#93c5fd"/>
  <text x="459.597105" y="511" class="value">3,397 ms</text>
  <rect x="190" y="523" width="426.499997" height="18" rx="4" fill="#3b82f6"/>
  <text x="624.499997" y="537" class="value">5,539 ms</text>
  <rect x="190" y="549" width="525.466942" height="18" rx="4" fill="#1d4ed8"/>
  <text x="723.466942" y="563" class="value">6,824 ms</text>
  <rect x="190" y="575" width="407.46236300000004" height="18" rx="4" fill="#67e8f9"/>
  <text x="605.4623630000001" y="589" class="value">5,292 ms</text>
  <rect x="190" y="601" width="529.9602769999999" height="18" rx="4" fill="#06b6d4"/>
  <text x="727.9602769999999" y="615" class="value">6,883 ms</text>
  <rect x="190" y="627" width="637.433027" height="18" rx="4" fill="#0e7490"/>
  <text x="835.433027" y="641" class="value">8,278 ms</text>
  <text x="575" y="767" text-anchor="middle" class="axis">milliseconds</text>
</svg>
